<?xml version="1.0" encoding="UTF-8"?>
<svg xmlns="http://www.w3.org/2000/svg" width="1200" height="840" viewBox="0 0 1200 840" fill="none" role="img" aria-label="FOM brand asset">
  <defs>
    <linearGradient id="grad-shell" x1="0%" y1="0%" x2="100%" y2="100%">
      <stop offset="0%" stop-color="#313D4D"/>
      <stop offset="100%" stop-color="#0F1722"/>
    </linearGradient>
    <linearGradient id="grad-core" x1="0%" y1="0%" x2="100%" y2="100%">
      <stop offset="0%" stop-color="#F4622A"/>
      <stop offset="100%" stop-color="#E0521C"/>
    </linearGradient>
    <linearGradient id="bg-dark" x1="0%" y1="0%" x2="100%" y2="100%">
      <stop offset="0%" stop-color="#0F141B"/>
      <stop offset="100%" stop-color="#242E3B"/>
    </linearGradient>
    <linearGradient id="bg-sunset" x1="0%" y1="0%" x2="100%" y2="100%">
      <stop offset="0%" stop-color="#1B222E"/>
      <stop offset="50%" stop-color="#202C3D"/>
      <stop offset="100%" stop-color="#102224"/>
    </linearGradient>
    <linearGradient id="bg-teal" x1="0%" y1="0%" x2="100%" y2="100%">
      <stop offset="0%" stop-color="#0C5D5D"/>
      <stop offset="100%" stop-color="#1E9E96"/>
    </linearGradient>
    <radialGradient id="glow-orange" cx="50%" cy="50%" r="60%">
      <stop offset="0%" stop-color="#F4622A" stop-opacity="0.70"/>
      <stop offset="100%" stop-color="#F4622A" stop-opacity="0"/>
    </radialGradient>
    <radialGradient id="glow-teal" cx="50%" cy="50%" r="60%">
      <stop offset="0%" stop-color="#1E9E96" stop-opacity="0.66"/>
      <stop offset="100%" stop-color="#1E9E96" stop-opacity="0"/>
    </radialGradient>
    <pattern id="grid-32" width="32" height="32" patternUnits="userSpaceOnUse">
      <path d="M32 0H0V32" stroke="#FFFFFF" stroke-opacity="0.08" stroke-width="1"/>
    </pattern>
    <filter id="soft-shadow" x="-30%" y="-30%" width="160%" height="180%">
      <feDropShadow dx="0" dy="14" stdDeviation="16" flood-color="#000" flood-opacity="0.35"/>
    </filter>
    
  </defs>
  
      <rect width="1200" height="840" fill="#FAFAF8"/>
      <rect width="1200" height="840" fill="url(#grid-32)" opacity="0.36"/>
      <circle cx="1060" cy="96" r="260" fill="url(#glow-teal)"/>
      <circle cx="130" cy="80" r="240" fill="url(#glow-orange)"/>

      <rect x="188" y="130" width="824" height="560" rx="34" fill="#FFFFFF" stroke="#E7E7E3" stroke-width="3"/>
      <rect x="238" y="192" width="730" height="72" rx="16" fill="#F6F7FA"/>
      <rect x="238" y="292" width="330" height="300" rx="24" fill="#F7F0EB"/>
      <rect x="596" y="292" width="372" height="140" rx="24" fill="#ECF7F6"/>
      <rect x="596" y="452" width="372" height="140" rx="24" fill="#F6F7FA"/>

      <g transform="translate(334 358)">
    <rect x="0" y="0" width="144" height="144" rx="34.56" fill="url(#grad-shell)"/>
    <rect x="17.28" y="17.28" width="109.44" height="109.44" rx="25.919999999999998" fill="url(#grad-core)"/>
    <circle cx="116.352" cy="116.352" r="12.959999999999999" fill="#1E9E96"/>
    <text x="72" y="87.84" text-anchor="middle" font-family="Arial, Helvetica, sans-serif" font-size="63.36" font-weight="700" fill="#FFFFFF" letter-spacing="2.88">F</text>
  </g>
      <text x="744" y="354" font-family="Arial, Helvetica, sans-serif" font-size="52" font-weight="700" fill="#131A22">No Orders Yet</text>
      <text x="744" y="404" font-family="Arial, Helvetica, sans-serif" font-size="30" fill="#555558">Incoming Facebook and chat orders will appear here.</text>
      <text x="744" y="450" font-family="Arial, Helvetica, sans-serif" font-size="26" fill="#555558">Share this visual for onboarding docs and release notes.</text>
    
</svg>