<?xml version="1.0" encoding="UTF-8"?>
<svg xmlns="http://www.w3.org/2000/svg" width="256" height="256" viewBox="0 0 256 256" fill="none" role="img" aria-label="FOM brand asset">
  <defs>
    <linearGradient id="grad-shell" x1="0%" y1="0%" x2="100%" y2="100%">
      <stop offset="0%" stop-color="#313D4D"/>
      <stop offset="100%" stop-color="#0F1722"/>
    </linearGradient>
    <linearGradient id="grad-core" x1="0%" y1="0%" x2="100%" y2="100%">
      <stop offset="0%" stop-color="#F4622A"/>
      <stop offset="100%" stop-color="#E0521C"/>
    </linearGradient>
    <linearGradient id="bg-dark" x1="0%" y1="0%" x2="100%" y2="100%">
      <stop offset="0%" stop-color="#0F141B"/>
      <stop offset="100%" stop-color="#242E3B"/>
    </linearGradient>
    <linearGradient id="bg-sunset" x1="0%" y1="0%" x2="100%" y2="100%">
      <stop offset="0%" stop-color="#1B222E"/>
      <stop offset="50%" stop-color="#202C3D"/>
      <stop offset="100%" stop-color="#102224"/>
    </linearGradient>
    <linearGradient id="bg-teal" x1="0%" y1="0%" x2="100%" y2="100%">
      <stop offset="0%" stop-color="#0C5D5D"/>
      <stop offset="100%" stop-color="#1E9E96"/>
    </linearGradient>
    <radialGradient id="glow-orange" cx="50%" cy="50%" r="60%">
      <stop offset="0%" stop-color="#F4622A" stop-opacity="0.70"/>
      <stop offset="100%" stop-color="#F4622A" stop-opacity="0"/>
    </radialGradient>
    <radialGradient id="glow-teal" cx="50%" cy="50%" r="60%">
      <stop offset="0%" stop-color="#1E9E96" stop-opacity="0.66"/>
      <stop offset="100%" stop-color="#1E9E96" stop-opacity="0"/>
    </radialGradient>
    <pattern id="grid-32" width="32" height="32" patternUnits="userSpaceOnUse">
      <path d="M32 0H0V32" stroke="#FFFFFF" stroke-opacity="0.08" stroke-width="1"/>
    </pattern>
    <filter id="soft-shadow" x="-30%" y="-30%" width="160%" height="180%">
      <feDropShadow dx="0" dy="14" stdDeviation="16" flood-color="#000" flood-opacity="0.35"/>
    </filter>
    
  </defs>
  
      <rect width="256" height="256" fill="url(#bg-dark)"/>
      <rect x="22" y="22" width="212" height="212" rx="44" fill="#F4622A" fill-opacity="0.16"/>
      
        <circle cx="112" cy="94" r="30" fill="none" stroke="#FFFFFF" stroke-width="14"/>
        <path d="M62 186C74 154 93 140 112 140C131 140 150 154 162 186" fill="none" stroke="#FFFFFF" stroke-width="14" stroke-linecap="round"/>
        <path d="M158 92H206C212 92 216 96 216 102V146C216 152 212 156 206 156H186L166 176V156H158C152 156 148 152 148 146V102C148 96 152 92 158 92Z" fill="none" stroke="#FFFFFF" stroke-width="12" stroke-linejoin="round"/>
      
    
</svg>