<svg width="360" height="260" viewBox="0 0 360 260" fill="none" xmlns="http://www.w3.org/2000/svg">
  <defs>
    <linearGradient id="bgDelivery" x1="22" y1="20" x2="338" y2="246" gradientUnits="userSpaceOnUse">
      <stop stop-color="#FFF8F4"/>
      <stop offset="1" stop-color="#EEF9F8"/>
    </linearGradient>
    <filter id="cardShadow" x="18" y="24" width="324" height="212" filterUnits="userSpaceOnUse" color-interpolation-filters="sRGB">
      <feDropShadow dx="0" dy="10" stdDeviation="12" flood-color="#1E182E" flood-opacity="0.1"/>
    </filter>
  </defs>

  <rect x="24" y="12" width="312" height="236" rx="30" fill="url(#bgDelivery)"/>
  <circle cx="56" cy="56" r="22" fill="#FFD4C2" fill-opacity="0.55"/>
  <circle cx="306" cy="200" r="20" fill="#C8EDEA" fill-opacity="0.55"/>

  <g filter="url(#cardShadow)">
    <rect x="30" y="36" width="300" height="188" rx="24" fill="white"/>
  </g>

  <rect x="52" y="60" width="90" height="24" rx="12" fill="#FFF0EB"/>
  <circle cx="66" cy="72" r="6" fill="#FF6B35"/>
  <text x="78" y="76" font-family="Arial, sans-serif" font-size="11" font-weight="700" fill="#5A5A7A">Pending</text>

  <rect x="148" y="60" width="94" height="24" rx="12" fill="#FFF7D5"/>
  <circle cx="162" cy="72" r="6" fill="#F59E0B"/>
  <text x="174" y="76" font-family="Arial, sans-serif" font-size="11" font-weight="700" fill="#5A5A7A">Dispatch</text>

  <rect x="248" y="60" width="64" height="24" rx="12" fill="#DCFCE7"/>
  <circle cx="262" cy="72" r="6" fill="#22C55E"/>
  <text x="274" y="76" font-family="Arial, sans-serif" font-size="11" font-weight="700" fill="#5A5A7A">Done</text>

  <path d="M70 158C96 129 122 109 152 114C172 117 186 136 206 138C230 141 250 122 278 98" stroke="#FF6B35" stroke-width="4" stroke-linecap="round" stroke-dasharray="8 9"/>

  <circle cx="70" cy="158" r="8" fill="#FF6B35"/>
  <circle cx="152" cy="114" r="8" fill="#F59E0B"/>
  <circle cx="206" cy="138" r="8" fill="#2AA8A0"/>
  <circle cx="278" cy="98" r="8" fill="#22C55E"/>

  <rect x="118" y="158" width="124" height="50" rx="20" fill="#FF6B35"/>
  <circle cx="145" cy="210" r="11" fill="#1A1A2E"/>
  <circle cx="213" cy="210" r="11" fill="#1A1A2E"/>
  <circle cx="145" cy="210" r="5.2" fill="#fff"/>
  <circle cx="213" cy="210" r="5.2" fill="#fff"/>
  <rect x="138" y="148" width="40" height="16" rx="8" fill="#FFD4C2"/>
  <rect x="180" y="144" width="30" height="20" rx="5" fill="#FFE5D8"/>
  <path d="M140 183H222" stroke="white" stroke-width="4" stroke-linecap="round"/>
  <circle cx="173" cy="183" r="5" fill="white"/>
</svg>
